HIERARCHY
ROOT hip
{
  OFFSET 0 0 0
  CHANNELS 6 Xposition Yposition Zposition Zrotation Yrotation Xrotation
  JOINT abdomen
  {
    OFFSET 0 20.6881 -0.73152
    CHANNELS 3 Zrotation Xrotation Yrotation
    JOINT chest
    {
      OFFSET 0 11.7043 -0.48768
      CHANNELS 3 Zrotation Xrotation Yrotation
      JOINT neck
      {
        OFFSET 0 22.1894 -2.19456
        CHANNELS 3 Zrotation Xrotation Yrotation
        JOINT head
        {
          OFFSET -0.24384 7.07133 1.2192
          CHANNELS 3 Zrotation Xrotation Yrotation
          JOINT leftEye
          {
            OFFSET 4.14528 8.04674 8.04672
            CHANNELS 3 Zrotation Xrotation Yrotation
            End Site
            {
              OFFSET 1 0 0
            }
          }
          JOINT rightEye
          {
            OFFSET -3.6576 8.04674 8.04672
            CHANNELS 3 Zrotation Xrotation Yrotation
            End Site
            {
              OFFSET 1 0 0
            }
          }
        }
      }
      JOINT rCollar
      {
        OFFSET -2.68224 19.2634 -4.8768
        CHANNELS 3 Zrotation Xrotation Yrotation
        JOINT rShldr
        {
          OFFSET -8.77824 -1.95073 1.46304
          CHANNELS 3 Zrotation Xrotation Yrotation
          JOINT rForeArm
          {
            OFFSET -28.1742 -1.7115 0.48768
            CHANNELS 3 Zrotation Xrotation Yrotation
            JOINT rHand
            {
              OFFSET -22.5879 0.773209 7.07136
              CHANNELS 3 Zrotation Xrotation Yrotation
              JOINT rThumb1
              {
                OFFSET -1.2192 -0.487915 3.41376
                CHANNELS 3 Zrotation Xrotation Yrotation
                JOINT rThumb2
                {
                  OFFSET -3.37035 -0.52449 3.41376
                  CHANNELS 3 Zrotation Xrotation Yrotation
                  End Site
                  {
                    OFFSET -1.78271 -1.18214 1.43049
                  }
                }
              }
              JOINT rIndex1
              {
                OFFSET -7.75947 0.938293 5.60832
                CHANNELS 3 Zrotation Xrotation Yrotation
                JOINT rIndex2
                {
                  OFFSET -2.54057 -0.884171 1.56538
                  CHANNELS 3 Zrotation Xrotation Yrotation
                  End Site
                  {
                    OFFSET -1.62519 -0.234802 1.16502
                  }
                }
              }
              JOINT rMid1
              {
                OFFSET -8.24714 1.18213 3.41376
                CHANNELS 3 Zrotation Xrotation Yrotation
                JOINT rMid2
                {
                  OFFSET -3.10165 -0.590103 1.0647
                  CHANNELS 3 Zrotation Xrotation Yrotation
                  End Site
                  {
                    OFFSET -2.48547 -0.328903 0.83742
                  }
                }
              }
              JOINT rRing1
              {
                OFFSET -8.82822 0.546677 1.51678
                CHANNELS 3 Zrotation Xrotation Yrotation
                JOINT rRing2
                {
                  OFFSET -2.60934 -0.819778 -0.0198488
                  CHANNELS 3 Zrotation Xrotation Yrotation
                  End Site
                  {
                    OFFSET -2.33842 -0.294052 0.168128
                  }
                }
              }
              JOINT rPinky1
              {
                OFFSET -8.27202 -0.0477905 -0.4584
                CHANNELS 3 Zrotation Xrotation Yrotation
                JOINT rPinky2
                {
                  OFFSET -1.82734 -0.647385 -0.700984
                  CHANNELS 3 Zrotation Xrotation Yrotation
                  End Site
                  {
                    OFFSET -1.69225 -0.51767 -0.607171
                  }
                }
              }
            }
          }
        }
      }
      JOINT lCollar
      {
        OFFSET 2.68224 19.2634 -4.8768
        CHANNELS 3 Zrotation Xrotation Yrotation
        JOINT lShldr
        {
          OFFSET 8.77824 -1.95073 1.46304
          CHANNELS 3 Zrotation Xrotation Yrotation
          JOINT lForeArm
          {
            OFFSET 28.1742 -1.7115 0.48768
            CHANNELS 3 Zrotation Xrotation Yrotation
            JOINT lHand
            {
              OFFSET 22.5879 0.773209 7.07136
              CHANNELS 3 Zrotation Xrotation Yrotation
              JOINT lThumb1
              {
                OFFSET 1.2192 -0.487915 3.41376
                CHANNELS 3 Zrotation Xrotation Yrotation
                JOINT lThumb2
                {
                  OFFSET 3.37035 -0.52449 3.41376
                  CHANNELS 3 Zrotation Xrotation Yrotation
                  End Site
                  {
                    OFFSET 1.78271 -1.18214 1.43049
                  }
                }
              }
              JOINT lIndex1
              {
                OFFSET 7.75947 0.938293 5.60832
                CHANNELS 3 Zrotation Xrotation Yrotation
                JOINT lIndex2
                {
                  OFFSET 2.54057 -0.884171 1.56538
                  CHANNELS 3 Zrotation Xrotation Yrotation
                  End Site
                  {
                    OFFSET 1.62519 -0.234802 1.16502
                  }
                }
              }
              JOINT lMid1
              {
                OFFSET 8.24714 1.18213 3.41376
                CHANNELS 3 Zrotation Xrotation Yrotation
                JOINT lMid2
                {
                  OFFSET 3.10165 -0.590103 1.0647
                  CHANNELS 3 Zrotation Xrotation Yrotation
                  End Site
                  {
                    OFFSET 2.48547 -0.328903 0.83742
                  }
                }
              }
              JOINT lRing1
              {
                OFFSET 8.82822 0.546677 1.51678
                CHANNELS 3 Zrotation Xrotation Yrotation
                JOINT lRing2
                {
                  OFFSET 2.60934 -0.819778 -0.0198488
                  CHANNELS 3 Zrotation Xrotation Yrotation
                  End Site
                  {
                    OFFSET 2.33842 -0.294052 0.168128
                  }
                }
              }
              JOINT lPinky1
              {
                OFFSET 8.27202 -0.0477905 -0.4584
                CHANNELS 3 Zrotation Xrotation Yrotation
                JOINT lPinky2
                {
                  OFFSET 1.82734 -0.647385 -0.700984
                  CHANNELS 3 Zrotation Xrotation Yrotation
                  End Site
                  {
                    OFFSET 1.69225 -0.51767 -0.607171
                  }
                }
              }
            }
          }
        }
      }
    }
  }
  JOINT rButtock
  {
    OFFSET -8.77824 4.35084 1.2192
    CHANNELS 3 Zrotation Xrotation Yrotation
    JOINT rThigh
    {
      OFFSET 0 -1.70687 -2.19456
      CHANNELS 3 Zrotation Xrotation Yrotation
      JOINT rShin
      {
        OFFSET 0 -36.8199 0.73152
        CHANNELS 3 Zrotation Xrotation Yrotation
        JOINT rFoot
        {
          OFFSET 0.73152 -45.1104 -5.12064
          CHANNELS 3 Zrotation Xrotation Yrotation
          End Site
          {
            OFFSET -1.1221 -3.69964 12.103
          }
        }
      }
    }
  }
  JOINT lButtock
  {
    OFFSET 8.77824 4.35084 1.2192
    CHANNELS 3 Zrotation Xrotation Yrotation
    JOINT lThigh
    {
      OFFSET 0 -1.70687 -2.19456
      CHANNELS 3 Zrotation Xrotation Yrotation
      JOINT lShin
      {
        OFFSET 0 -36.8199 0.73152
        CHANNELS 3 Zrotation Xrotation Yrotation
        JOINT lFoot
        {
          OFFSET -0.73152 -45.1104 -5.12064
          CHANNELS 3 Zrotation Xrotation Yrotation
          End Site
          {
            OFFSET 1.1221 -3.69964 12.103
          }
        }
      }
    }
  }
}
MOTION
Frames:	5
Frame Time:	0.03333
-35.620000000000005 54.6902 -70.42819999999999 165.103947 -52.434136 -165.946774 -17.171855 12.379041 -0.0 6.848888 -9.621569 6.548853 5.246986 30.205592 124.278519 -31.883769 32.096792 -155.202515 -0.000711 -0.0 0.003344 0.003972 -0.0 -0.002914 -0.165137 0.979189 0.21899 70.638699 -32.869993 75.67704 87.42064 -52.658479 65.375691 -177.755023 41.838945 152.891621 6.668336 -6.65901 -0.642839 -120.347223 -5.264898 108.795585 -90.226177 41.072797 75.796501 -40.141257 46.495738 23.568302 -0.57147 1.648343 0.321561 11.372376 -24.936965 -1.562239 -0.008387 -0.830918 -0.262759 -6.566541 62.753603 19.325335 -162.364338 72.063889 -150.902066 -161.267641 52.500616 -147.673651 155.460035 -3.227822 -161.777465 145.689166 50.257344 -85.109727 59.375166 -5.790901 -173.381496 179.798456 -57.390665 -153.38685 0.441614 0.435276 -0.069378 127.905272 -23.065315 -113.65927 151.352744 -17.158417 -121.133385 -124.787008 -70.428463 -68.956917 0.057805 0.167921 -0.031314 172.070727 -31.345182 -144.104737 145.120744 1.974569 179.748605 155.648427 0.821434 179.335285 139.225266 -4.396117 136.389053 148.046804 14.127995 142.303441 -179.989929 75.749473 -0.008286 153.168852 -0.644738 -180.0 41.632741 -68.847811 133.764532 145.192871 -15.442919 -93.015956 -0.001632 0.000168 -0.000816 10.966335 6.362254 -1.010931 4.61796 52.889422 128.478241 -27.637844 18.276345 -93.52308
-35.789500000000004 54.6721 -70.7005 164.440746 -52.44852 -164.998098 -17.68332 7.533908 -180.0 -6.734274 5.004722 -174.075397 -15.073948 22.295886 -54.950876 34.53884 -11.508813 20.855349 -0.003309 -0.0 0.001745 0.002328 0.0 0.000725 -157.796885 -22.115571 165.467036 -117.493563 -29.385372 -136.262951 -90.657963 -72.966279 -83.310277 2.556797 14.41611 4.561331 -171.653536 -9.336202 89.949763 -77.806466 5.709687 25.845981 -108.428017 34.160977 91.74274 -161.772923 -6.404823 115.950958 0.04801 -0.138612 -0.025709 -88.69652 64.086127 80.426251 -145.117735 0.185667 -179.186054 -148.073828 -43.196877 -170.545489 26.973711 80.122626 10.13732 1.11763 -0.698621 -1.154074 159.221261 -48.380904 -170.491574 -126.415872 3.818687 174.354508 2.733406 -4.203531 -100.991811 9.831938 -32.750291 7.998912 103.199696 36.332292 -60.111913 0.203104 -21.632441 -26.020855 27.422309 30.638806 -20.099128 -51.898149 -50.187537 -11.810757 36.035338 51.723464 -29.831809 34.335243 55.121075 -29.13211 69.297832 72.946551 -87.017049 -5.867844 0.891479 4.292794 75.777538 -51.669485 74.249701 146.917171 13.225963 143.135108 0.001085 0.000407 -0.0 -62.72763 -59.277353 -66.098333 -22.962481 71.173831 130.203655 1.68546 10.215887 -94.757669 0.002641 0.000456 0.00132 11.93352 5.88139 -96.644361 -45.761229 0.123649 160.413263 9.908819 -29.38023 -35.484587
-35.937999999999995 54.607099999999996 -70.9323 163.884875 -52.393958 -164.195998 -18.016437 12.309004 -0.0 6.707599 -9.863019 6.508771 -15.339482 23.107926 -59.218457 36.340999 -9.5219 24.74217 0.00202 0.0 0.000512 0.00202 0.0 0.000512 -153.050232 10.023221 158.667413 -125.354585 -40.626439 -119.716653 104.452008 77.38259 -151.464926 160.195048 -23.66979 145.480434 -179.37409 -16.876898 89.35914 150.940665 -46.920586 103.725924 88.792388 -75.498654 40.048963 -159.775592 -21.13349 115.59141 -169.089039 -33.247386 145.375512 -7.572864 26.10254 6.417285 -145.12058 0.267448 -179.213065 2.631777 -43.838947 -17.910404 -1.202989 -3.047816 -1.115058 -9.962932 -26.005708 -11.323763 142.97417 39.431885 -147.390602 -100.146361 -13.978463 -96.472603 178.445416 3.216186 -43.459178 157.778207 19.478978 -135.820852 93.74365 37.963007 -53.54837 -17.343415 -26.706163 -23.279135 35.099248 35.160701 -26.61177 -4.317816 4.406084 1.153777 160.098838 -4.901262 -142.968119 170.278134 -25.742693 -143.885791 72.963882 -72.143973 89.989721 143.402992 62.552345 -162.970073 135.819791 -11.891433 133.184623 23.709539 -39.237638 25.545299 179.997206 75.749375 0.002883 151.531255 -0.937613 91.728516 67.49269 2.669618 -56.645904 -116.331657 -5.551044 39.337046 179.9865 75.74992 0.009237 -123.139586 78.020171 -20.877964 21.932554 32.753141 -64.174814 128.615587 36.68725 -35.34204
-36.08 54.509600000000006 -71.146 163.352121 -52.260807 -163.443314 -16.259597 11.202085 -57.067961 9.905374 -1.059141 62.884843 6.005871 24.192606 87.668553 -38.37113 10.47448 -123.632529 0.000638 0.0 0.003431 -0.000386 0.0 -0.001786 -147.671461 29.08491 152.475875 -5.937953 18.709517 -34.115041 120.754584 62.887713 -111.011928 -114.041673 80.50788 100.093698 -173.313867 -10.98781 89.91052 -71.717204 3.272815 21.356006 -152.316189 -18.948005 121.429465 -4.888953 28.162126 -1.865957 7.903184 -24.807754 -3.013678 9.05331 -18.183371 -1.47579 -70.3802 -72.129847 -87.280176 13.866819 29.738949 -0.477528 -137.660939 -7.99109 -134.925419 -155.017654 36.403264 -146.023427 142.973529 39.431578 -147.389987 -1.134007 -8.990411 -77.724791 -176.045561 -85.010109 86.474491 11.244054 -26.060475 6.82576 3.140531 3.070342 -0.563187 29.991018 22.779717 -28.105698 19.170372 24.114673 -13.380702 -14.83421 -9.067499 1.807904 36.033785 51.724338 -29.830374 165.746845 -12.924331 -143.923663 73.626544 72.971671 -91.554422 -5.107831 28.159971 0.710552 -44.727789 86.378496 5.362898 25.884909 -40.641709 25.90159 0.0 -0.000554 0.001883 -67.398963 -61.178251 180.0 -71.803191 -26.652719 -172.104683 -0.783682 -30.412115 -91.937838 179.991453 75.749185 0.008818 -126.007211 78.337329 23.617677 47.726503 15.710522 134.382334 -33.372763 28.873516 -175.410832
-36.231 54.388999999999996 -71.3595 162.880069 -52.078041 -162.817511 -16.108851 9.548428 -97.412933 6.726703 4.902909 102.929606 1.955073 34.368744 154.274256 -16.290857 46.655967 172.795484 -0.001549 0.0 -0.00304 -0.001549 0.0 -0.00304 0.118331 -0.713918 -0.158948 -107.662509 26.481177 101.606067 91.373447 54.667946 -108.831602 179.771043 35.345566 153.608801 -78.03088 38.689341 42.412459 -80.430658 -1.929899 63.407951 5.920008 -10.174998 -2.968167 -65.039054 48.653877 51.07112 -167.374922 -28.008354 145.270106 7.24638 -12.312226 -0.845381 -0.006797 3.475586 1.092823 -156.850346 -31.6323 175.57268 -26.561717 -38.862677 -25.602999 -146.262154 10.536603 -143.096131 -4.225989 -44.097208 8.514231 164.546294 11.268233 119.582671 70.364214 -81.844111 -27.576412 9.252275 -35.807217 8.513509 115.533875 32.701953 -68.304905 -172.487542 -36.444625 -76.184208 158.401256 -30.155993 -122.605157 170.325832 -35.17544 -117.627541 160.888954 -7.337703 -143.345122 3.346476 17.311806 -3.698452 145.120172 0.267701 179.212555 -11.93238 52.874134 2.698559 81.323822 -51.180766 79.740796 -9.097876 16.806622 -3.331461 -0.000609 0.000156 0.000783 -68.084575 -61.370365 -165.176689 -67.857187 -16.570748 116.959422 -10.090109 8.279311 -7.904845 -0.001488 -0.001069 -0.001488 9.457625 7.802487 55.30166 37.100683 30.590041 177.223215 116.727979 -10.600858 172.325352
